PathFileType	4	(X/Y/Z)	/Users/niels/Desktop/University/Third Semester/Perception and Action/Exam/Gymnastics Motion Tracking/Code for Gym Tracking/Analyzed Data/Webcam_Backflip/id8_5_baseline_Sports2D/id8_5_baseline_Sports2D_px_person00.trc
DataRate	CameraRate	NumFrames	NumMarkers	Units	OrigDataRate	OrigDataStartFrame	OrigNumFrames
29.8125	29.8125	10	22	m	29.8125	40	160
Frame#	Time	Hip			RHip			RKnee			RAnkle			RBigToe			RSmallToe			RHeel			LHip			LKnee			LAnkle			LBigToe			LSmallToe			LHeel			Neck			Head			Nose			RShoulder			RElbow			RWrist			LShoulder			LElbow			LWrist		
		X1	Y1	Z1	X2	Y2	Z2	X3	Y3	Z3	X4	Y4	Z4	X5	Y5	Z5	X6	Y6	Z6	X7	Y7	Z7	X8	Y8	Z8	X9	Y9	Z9	X10	Y10	Z10	X11	Y11	Z11	X12	Y12	Z12	X13	Y13	Z13	X14	Y14	Z14	X15	Y15	Z15	X16	Y16	Z16	X17	Y17	Z17	X18	Y18	Z18	X19	Y19	Z19	X20	Y20	Z20	X21	Y21	Z21	X22	Y22	Z22
40	1.341719077568134	0.9768979718313079	-0.3279698069457083	0.0	0.9770615535637476	-0.3267635185796714	0.0	0.9001427877986491	-0.292178112389395	0.0	0.9711822890599919	-0.25365735172972964	0.0	0.9837586159592635	-0.2239197754816706	0.0	0.9854335032770148	-0.22279174499767818	0.0	0.9808537598275242	-0.2519189646896395	0.0	0.9761367113726171	-0.32921923592627333	0.0	0.9058616585039893	-0.29150252178554364	0.0	0.9718241528266522	-0.2521054509180908	0.0	0.9887451754498492	-0.22342777341021247	0.0	0.9845848578896073	-0.22664373763745976	0.0	0.9844197326943925	-0.24941783471950169	0.0	0.8969323073698618	-0.38992960032558743	0.0	0.8630282157076841	-0.4206598376231889	0.0	0.8692188856853053	-0.3953232156806075	0.0	0.9035172733255403	-0.3755932924283611	0.0	0.9229340584660154	-0.31919346241147645	0.0	0.9224383720912711	-0.298227345777517	0.0	0.904112432284768	-0.385364229975012	0.0	0.9409232655210618	-0.33586727018293	0.0	0.952152893012582	-0.30574160256226457	0.0
41	1.3752620545073373	0.9689529320480363	-0.315525381415597	0.0	0.9678891057073877	-0.3144799077882747	0.0	0.8839161589038332	-0.3147654916555776	0.0	0.9345720362568843	-0.25428336159906234	0.0	0.9358399458698311	-0.22768229462923922	0.0	0.937015249285969	-0.2237526267744213	0.0	0.9424017275458916	-0.24815368088520892	0.0	0.9695988198008239	-0.3172213827188477	0.0	0.892303568607514	-0.30990504556118237	0.0	0.9355572243741608	-0.25240834909337295	0.0	0.9402728750889481	-0.22681429393451852	0.0	0.9367381791130814	-0.23103824451748622	0.0	0.9464953640848734	-0.24461098828255182	0.0	0.9165502388448843	-0.4022140509023314	0.0	0.8989677343416503	-0.4426452155611248	0.0	0.893757896254034	-0.41970789673158393	0.0	0.9191549753739912	-0.38666773257226056	0.0	0.91967320832481	-0.3297191600598205	0.0	0.9155309391142512	-0.32199272563379155	0.0	0.9224361327945675	-0.3958117212720874	0.0	0.9528591111940421	-0.35098394044224895	0.0	0.9613635416870993	-0.33184824352014447	0.0
42	1.4088050314465406	0.9568810068356639	-0.30819986557619355	0.0	0.9546791816895105	-0.3078295515369522	0.0	0.8748608154886898	-0.34327207166662166	0.0	0.8974079182121298	-0.2699380083868384	0.0	0.8872213869471547	-0.2521476715854328	0.0	0.8878942312821677	-0.24549416225021284	0.0	0.902528494250712	-0.2600610565136784	0.0	0.9589355170484246	-0.31009135404728233	0.0	0.8844676233620038	-0.33423849423648977	0.0	0.8983063283295706	-0.267368917037253	0.0	0.8893237523438966	-0.2501154465664842	0.0	0.8874125307260606	-0.2545341748339398	0.0	0.9064721613006067	-0.2555798447988175	0.0	0.9381253992796239	-0.41096244093798656	0.0	0.9389804717875546	-0.45641115607203464	0.0	0.9234667149568966	-0.43909356948465794	0.0	0.9362554573122321	-0.39514045051523283	0.0	0.9162388097302903	-0.34242293259374906	0.0	0.9094923995168654	-0.3477784610330692	0.0	0.942346414111589	-0.40289594665488393	0.0	0.9627399292234217	-0.36625051399946573	0.0	0.9678001658843358	-0.35949698360495497	0.0
43	1.442348008385744	0.9419782255420385	-0.3076417150652671	0.0	0.9387228416077575	-0.3082797412045905	0.0	0.8722403079616644	-0.3746227386146695	0.0	0.8631971700331573	-0.3006862722975753	0.0	0.8440087149369421	-0.2963080380375171	0.0	0.843944623125963	-0.28759901462840676	0.0	0.864926853278181	-0.2882372217687241	0.0	0.9451643799983719	-0.3096944242351196	0.0	0.8814469446332563	-0.3624605103204183	0.0	0.8638508416154593	-0.2970547021209875	0.0	0.8433376885717471	-0.29241074558827085	0.0	0.8433573048902274	-0.295711295881042	0.0	0.8683019005041605	-0.28282259449854685	0.0	0.9591232835151766	-0.41576407000773385	0.0	0.9778204624650269	-0.4615262108431321	0.0	0.954380936122175	-0.45160737491069675	0.0	0.9529474205658012	-0.40044733763239443	0.0	0.9143497350577343	-0.3577172627285039	0.0	0.9055033529074055	-0.37547554699510466	0.0	0.9614470642703437	-0.4063274061342764	0.0	0.9684495689166768	-0.3811398879606931	0.0	0.9687738993417544	-0.3874126418253478	0.0
44	1.4758909853249473	0.9257306923157689	-0.3153730584750799	0.0	0.921577869192769	-0.317002982462626	0.0	0.8742606016978812	-0.4067476173479769	0.0	0.8354319783479227	-0.3460833658526755	0.0	0.8122721795326802	-0.35721815403007656	0.0	0.8109794541703065	-0.347721834484866	0.0	0.8332867319975089	-0.3326773913260909	0.0	0.9295317415229465	-0.31753339327201763	0.0	0.8820115426508719	-0.39334893587659536	0.0	0.8359810537888113	-0.3409597898401316	0.0	0.8096077736072561	-0.35115344703140944	0.0	0.8110449813195229	-0.3521593112914944	0.0	0.8360049247933151	-0.3261783010429739	0.0	0.9771347796747646	-0.4171625774861478	0.0	1.0111182985332516	-0.458737648488662	0.0	0.9827306881396566	-0.45660229679441067	0.0	0.9672048263412976	-0.4029721099006706	0.0	0.9153400629458546	-0.37536988456602327	0.0	0.9046763815577128	-0.40491174093637883	0.0	0.9772544441234974	-0.406946189977837	0.0	0.969098115542044	-0.3956969546659541	0.0	0.9638160203721221	-0.41493402688338704	0.0
45	1.5094339622641506	0.9096787023173845	-0.33237158759226937	0.0	0.9049712209556313	-0.3345731927064722	0.0	0.8784769642672711	-0.4389679050203664	0.0	0.8171096041676708	-0.40412100535381157	0.0	0.7965057351949131	-0.4293581286430307	0.0	0.7935082551186421	-0.42057748258094496	0.0	0.8109940946505216	-0.3916870303094464	0.0	0.9135147023814228	-0.3344172273066578	0.0	0.8845697006984221	-0.4265078804029722	0.0	0.8176387077324265	-0.3970874550468722	0.0	0.7929641389325517	-0.4214219678024068	0.0	0.7946979039479684	-0.4196722870755599	0.0	0.8129716384797668	-0.38393436255436897	0.0	0.9902723231800706	-0.41656602817160865	0.0	1.0363261791729386	-0.4500259508147409	0.0	1.0056838334569953	-0.4551869598744223	0.0	0.9772567442419678	-0.40402766872610035	0.0	0.9197558683057997	-0.3944589171774806	0.0	0.908198128490721	-0.4351740950197929	0.0	0.9878347106686992	-0.4065839577032025	0.0	0.9661843821296942	-0.4107242204775381	0.0	0.9565093060164235	-0.4420096888342773	0.0
46	1.542976939203354	0.8952764127151267	-0.3586111636290812	0.0	0.8905534955693384	-0.3607590300733143	0.0	0.8825363169948812	-0.47198737819265196	0.0	0.8098273240327271	-0.47079732539501945	0.0	0.7977746453517041	-0.505770032619511	0.0	0.7928905135632985	-0.4988876997105222	0.0	0.8002027852578381	-0.4613389239882441	0.0	0.8987327362961955	-0.3602723395808072	0.0	0.8870978237546981	-0.4620995236437643	0.0	0.8099468628094387	-0.4618068189052113	0.0	0.7940302297365351	-0.4966647458617735	0.0	0.7946987925127567	-0.49260047544777336	0.0	0.8009339427557147	-0.45239773192962895	0.0	0.9973339298962349	-0.4159182484926752	0.0	1.0524217707759438	-0.4384595942330892	0.0	1.0214406269610943	-0.45003961906834167	0.0	0.9819527432159456	-0.40555223266905	0.0	0.9272327208093007	-0.4136980547406431	0.0	0.9170228553335155	-0.4640216800497192	0.0	0.9922388073790486	-0.407414163979995	0.0	0.9630727250374126	-0.42707091711529	0.0	0.9530404314772787	-0.4681354830737935	0.0
47	1.5765199161425574	0.8836719528434027	-0.39310032455498856	0.0	0.8795245638961527	-0.39469663659094584	0.0	0.8850259164120619	-0.5073140032464346	0.0	0.8128523238047828	-0.5409899305857911	0.0	0.8128951841270338	-0.5802078053269822	0.0	0.8062843489121293	-0.5757829577072284	0.0	0.8006445007299252	-0.5361147271928512	0.0	0.8866227244735712	-0.39423365663566395	0.0	0.8879268543783401	-0.5005579501402813	0.0	0.811902845709516	-0.5307637071620512	0.0	0.8092998436642511	-0.5707759654637794	0.0	0.807742627064412	-0.5654088633307324	0.0	0.7994711036004895	-0.5265393675976979	0.0	0.9978253069788344	-0.417353516992737	0.0	1.0590874565043786	-0.42747804202547574	0.0	1.0290751232906774	-0.44446703316668335	0.0	0.9808985178215518	-0.40971032288577536	0.0	0.9367669385852069	-0.4319742185184696	0.0	0.931321525395714	-0.48827738380791014	0.0	0.9904875452895554	-0.4113558489736447	0.0	0.9625999680449907	-0.4445462489944062	0.0	0.9577194966579968	-0.4911951006679519	0.0
48	1.6100628930817606	0.8755518785170919	-0.43429320558964923	0.0	0.8723883856729217	-0.4351532758543412	0.0	0.8858171698208523	-0.5462173212769034	0.0	0.8231268598402534	-0.609876390401952	0.0	0.835516530258225	-0.6484314063972051	0.0	0.8275735723392453	-0.6464560872486368	0.0	0.809422899894147	-0.6103010839204999	0.0	0.8781491995946646	-0.43489434763231627	0.0	0.8868589452928385	-0.5422412742004078	0.0	0.8208990782587908	-0.5997582093858145	0.0	0.8326410810314809	-0.6395559094810023	0.0	0.8283392035136699	-0.633930443915483	0.0	0.8063068228709449	-0.6010735499656885	0.0	0.9919536593789425	-0.422905686517297	0.0	1.0562341736108847	-0.42006162056302765	0.0	1.028394553616763	-0.44147918184196167	0.0	0.9743904058918776	-0.41847541633493346	0.0	0.9470285142257368	-0.44874669266276884	0.0	0.9499730244004417	-0.5051324669187076	0.0	0.9832796711657694	-0.4199368844889981	0.0	0.9651991072843902	-0.4618038341971904	0.0	0.9700883930890651	-0.5079321019024499	0.0
49	1.6436058700209641	0.8710423515157975	-0.4802724717063726	0.0	0.8689319901403478	-0.48046638712167117	0.0	0.885714409440005	-0.588758237718255	0.0	0.8363826068838974	-0.6737685953781678	0.0	0.8585629510385853	-0.7082993487243487	0.0	0.8498123944452963	-0.7084020880553613	0.0	0.8221662102336961	-0.6791123403969891	0.0	0.873597876039547	-0.480401872975434	0.0	0.885169996313553	-0.5868189693319098	0.0	0.8334426284101749	-0.664982081542154	0.0	0.8571145400008333	-0.7006320681879142	0.0	0.8503765057249421	-0.6955130163130608	0.0	0.8179139545992268	-0.67112131184984	0.0	0.980592203382417	-0.43411384045473367	0.0	1.0441078587926933	-0.4182920853368841	0.0	1.0198873827515142	-0.4432933556428341	0.0	0.9633121720900064	-0.4331409910133146	0.0	0.9563764962942076	-0.46402466024287864	0.0	0.9702254855183181	-0.5131016236481906	0.0	0.9717309788940658	-0.4341861439279044	0.0	0.9690225373955347	-0.47716285693274824	0.0	0.9857201226258177	-0.5157280711863036	0.0
